#N canvas 2296 63 1122 829 12;
#N canvas 0 50 450 250 (subpatch) 0;
#X array notes 8 float 3;
#A 0 0 2 3 5 7 9 10 12;
#X coords 0 12 8 0 200 140 1 0 0;
#X restore 393 41 graph;
#X msg 389 251 \; notes 0 0 2 3 5 7 9 10 12 \;;
#X obj 97 74 loadbang;
#X obj 97 98 tgl 19 0 empty empty empty 0 -10 0 12 #fcfcfc #000000 #000000 0 1;
#X obj 97 122 metro 300;
#X obj 97 178 tabread notes;
#X obj 97 202 + 60;
#X obj 24 630 dac~;
#X obj 97 146 random 8;
#X obj 24 570 *~;
#X obj 94 570 *~;
#X obj 86 526 adc~;
#X obj 224 55 loadbang;
#X obj 224 79 random 200;
#X obj 224 103 + 150;
#X obj 263 173 loadbang;
#X obj 263 197 random 3;
#X obj 263 221 - 1;
#X obj 263 245 * 12;
#X floatatom 263 269 5 0 0 0 - - - 0;
#X obj 97 226 + 0;
#N canvas 26 26 482 519 synth1 0;
#X obj 320 38 inlet toggleon;
#X obj 63 16 inlet;
#X obj 62 304 outlet~;
#X obj 63 113 mtof;
#X obj 63 137 t f b;
#X obj 63 191 osc~;
#X obj 63 225 *~;
#X msg 92 165 0.75;
#X msg 144 153 0.9 \, 0 200;
#X obj 144 177 line~;
#X obj 63 259 *~ 0;
#X obj 63 57 spigot;
#X connect 0 0 10 1;
#X connect 0 0 11 1;
#X connect 1 0 11 0;
#X connect 3 0 4 0;
#X connect 4 0 5 0;
#X connect 4 1 8 0;
#X connect 4 1 7 0;
#X connect 5 0 6 0;
#X connect 6 0 10 0;
#X connect 7 0 5 1;
#X connect 8 0 9 0;
#X connect 9 0 6 1;
#X connect 10 0 2 0;
#X connect 11 0 3 0;
#X restore 99 390 pd synth1;
#X obj 99 414 throw~ output;
#X obj 320 340 hradio 19 1 0 3 empty empty empty 0 -10 0 12 #fcfcfc #000000 #000000 0;
#X obj 157 359 == 0;
#X obj 24 486 catch~ output;
#X obj 253 440 throw~ output;
#N canvas 26 26 482 519 synth2 0;
#X obj 320 38 inlet toggleon;
#X obj 63 16 inlet;
#X obj 62 454 outlet~;
#X obj 63 143 mtof;
#X obj 63 167 t f b;
#X obj 63 341 osc~;
#X obj 63 375 *~;
#X msg 92 315 0.75;
#X obj 144 327 line~;
#X obj 63 409 *~ 0;
#X obj 63 57 spigot;
#X obj 63 251 +~;
#X obj 168 192 *;
#X obj 186 29 loadbang;
#X obj 186 147 + 0.5;
#X obj 168 216 osc~;
#X obj 145 33 bng 19 250 50 0 empty empty empty 0 -10 0 12 #fcfcfc #000000 #000000;
#X floatatom 320 62 5 0 0 0 - - - 0;
#X floatatom 205 173 5 0 0 0 - - - 0;
#X obj 168 240 *~ 1000;
#X obj 186 53 random 100;
#X obj 186 77 / 100;
#X obj 186 101 * 3;
#X msg 144 303 0.9 \, 0 200;
#X connect 0 0 9 1;
#X connect 0 0 10 1;
#X connect 0 0 17 0;
#X connect 1 0 10 0;
#X connect 3 0 4 0;
#X connect 4 0 11 0;
#X connect 4 0 12 0;
#X connect 4 1 23 0;
#X connect 4 1 7 0;
#X connect 5 0 6 0;
#X connect 6 0 9 0;
#X connect 7 0 5 1;
#X connect 8 0 6 1;
#X connect 9 0 2 0;
#X connect 10 0 3 0;
#X connect 11 0 5 0;
#X connect 12 0 15 0;
#X connect 13 0 20 0;
#X connect 14 0 12 1;
#X connect 14 0 18 0;
#X connect 15 0 19 0;
#X connect 16 0 20 0;
#X connect 19 0 11 1;
#X connect 20 0 21 0;
#X connect 21 0 22 0;
#X connect 22 0 14 0;
#X connect 23 0 8 0;
#X restore 253 416 pd synth2;
#X obj 311 385 == 1;
#X obj 409 444 throw~ output;
#X obj 467 389 == 2;
#N canvas 26 26 482 519 synth3 0;
#X obj 320 38 inlet toggleon;
#X obj 63 16 inlet;
#X obj 62 434 outlet~;
#X obj 63 113 mtof;
#X obj 63 137 t f b;
#X obj 63 245 *~;
#X msg 144 153 0.9 \, 0 200;
#X obj 144 177 line~;
#X obj 63 389 *~ 0;
#X obj 63 57 spigot;
#X obj 63 161 phasor~;
#X obj 63 311 bob~, f 11;
#X obj 352 143 osc~ 0.1;
#X obj 352 167 *~ 0.5;
#X obj 352 191 +~ 0.55;
#X obj 352 215 *~ 8000;
#X obj 137 280 sig~ 3;
#X obj 63 185 *~ 2;
#X obj 63 209 -~ 1;
#X connect 0 0 8 1;
#X connect 0 0 9 1;
#X connect 1 0 9 0;
#X connect 3 0 4 0;
#X connect 4 0 10 0;
#X connect 4 1 6 0;
#X connect 5 0 11 0;
#X connect 6 0 7 0;
#X connect 7 0 5 1;
#X connect 8 0 2 0;
#X connect 9 0 3 0;
#X connect 10 0 17 0;
#X connect 11 0 8 0;
#X connect 12 0 13 0;
#X connect 13 0 14 0;
#X connect 14 0 15 0;
#X connect 15 0 11 1;
#X connect 16 0 11 2;
#X connect 17 0 18 0;
#X connect 18 0 5 0;
#X restore 409 420 pd synth3;
#X obj 320 286 loadbang;
#X obj 320 310 random 3;
#X connect 2 0 3 0;
#X connect 3 0 4 0;
#X connect 4 0 8 0;
#X connect 5 0 6 0;
#X connect 6 0 20 0;
#X connect 8 0 5 0;
#X connect 9 0 7 0;
#X connect 10 0 7 1;
#X connect 11 0 9 1;
#X connect 11 1 10 1;
#X connect 12 0 13 0;
#X connect 13 0 14 0;
#X connect 14 0 4 1;
#X connect 15 0 16 0;
#X connect 16 0 17 0;
#X connect 17 0 18 0;
#X connect 18 0 19 0;
#X connect 18 0 20 1;
#X connect 20 0 21 0;
#X connect 20 0 27 0;
#X connect 20 0 31 0;
#X connect 21 0 22 0;
#X connect 23 0 24 0;
#X connect 23 0 28 0;
#X connect 23 0 30 0;
#X connect 24 0 21 1;
#X connect 25 0 9 0;
#X connect 25 0 10 0;
#X connect 27 0 26 0;
#X connect 28 0 27 1;
#X connect 30 0 31 1;
#X connect 31 0 29 0;
#X connect 32 0 33 0;
#X connect 33 0 23 0;
